<svg xmlns="http://www.w3.org/2000/svg" xmlns:xlink="http://www.w3.org/1999/xlink" viewBox="0 0 181.6 116.4"><switch><g><defs><path id="a" d="M0 0h181.6v116.4H0V0"/></defs><clipPath id="b"><use xlink:href="#a" overflow="visible"/></clipPath><path clip-path="url(#b)" fill="#501C16" d="M99.5 46.5H59.3l.2 14.7 40-14.7"/><path clip-path="url(#b)" fill="#E5462C" d="M116.5 46.5h-17l-40 14.7 6.4 8.7h50.6c6.5 0 11.7-5.3 11.7-11.7.1-6.5-5.2-11.7-11.7-11.7"/><path clip-path="url(#b)" fill="#812A1D" d="M59.5 61.2l.8 8.7H66l-6.5-8.7"/><path clip-path="url(#b)" fill="#9A3121" d="M59.5 61.2l-13.7 8.1c1.2.4 2.5.7 3.9.7h10.5l-.7-8.8"/><path clip-path="url(#b)" fill="#501C16" d="M42.3 49.1c-2.6 2.2-4.3 5.4-4.3 9.1 0 5.1 3.3 9.5 7.9 11.1l13.7-8.1-17.3-12.1"/><path clip-path="url(#b)" fill="#CC3F28" d="M59.3 46.5h-9.6c-2.8 0-5.4 1-7.4 2.6l17.2 12.1-.2-14.7"/><path clip-path="url(#b)" fill="#66221D" d="M123.9 0H88c-6.5 0-11.7 5.3-11.7 11.7 0 4.5 2.5 8.3 6.1 10.3 1.7.9 3.6 1.4 5.6 1.4h35.4c7.6 0 14.7 2.5 20.4 6.6l14.3-5.3L124 0h-.1"/><path clip-path="url(#b)" fill="#E5462C" d="M142.6 87.1c-5.5 3.7-12.1 5.8-19.2 5.8H88c-1.6 0-3.2.3-4.6.9l16.6 22.6h23.9c4.1 0 8-.5 11.9-1.3l6.8-28M158 24.8l-14.3 5.3c4.2 3 7.6 7 10.1 11.5l4.2-16.8"/><path clip-path="url(#b)" fill="#B33824" d="M158 24.8l-4.2 16.8c2.7 4.9 4.2 10.6 4.2 16.6 0 12-6.1 22.7-15.5 28.9l-6.9 28c26.2-5.6 45.9-29 45.9-56.9 0-4.1-.4-8.1-1.2-11.9L158 24.8"/><path clip-path="url(#b)" fill="#E5462C" d="M162.7 15.3l-4.7 9.5 22.3 21.5c-2.4-12.1-8.8-22.9-17.6-31"/><path clip-path="url(#b)" fill="#371512" d="M124 0l34 24.8 4.7-9.5C152.5 5.9 138.9.2 124 0"/><path clip-path="url(#b)" fill="#812A1D" d="M83.5 93.8c-4.2 1.8-7.2 6-7.2 10.8 0 6.5 5.3 11.7 11.7 11.7h12L83.5 93.8"/><path clip-path="url(#b)" fill="#CC3F28" d="M45.5 0H28.2L13.6 23.5h31.9c6.5 0 11.7-5.3 11.7-11.7C57.2 5.3 52 0 45.5 0"/><path clip-path="url(#b)" fill="#501C16" d="M28.2 0H11.7C8.3 0 5.2 1.5 3.1 3.8l6.7 19.5c.6.1 1.3.2 1.9.2h1.8L28.2 0"/><path clip-path="url(#b)" fill="#9A3121" d="M3.1 3.8C1.2 5.9 0 8.7 0 11.7c0 5.8 4.3 10.7 9.8 11.6L3.1 3.8"/></g></switch></svg>