<svg xmlns="http://www.w3.org/2000/svg" viewBox="0 0 497.9 116.4"><switch><g><g fill="#21262D"><path d="M300.7 11.2v96.6H280v-6.5c-4.6 5.2-11.3 8.4-20.6 8.4-18.1 0-33-15.9-33-36.4 0-20.6 14.9-36.4 33-36.4 9.2 0 16 3.2 20.6 8.4V11.2h20.7zM280 73.3c0-10.3-6.9-16.8-16.4-16.8-9.5 0-16.4 6.5-16.4 16.8s6.9 16.8 16.4 16.8c9.5 0 16.4-6.5 16.4-16.8zm102.1-34.5v69h-20.7v-6.5c-4.6 5.2-11.3 8.4-20.6 8.4-18.1 0-33-15.9-33-36.4 0-20.6 14.9-36.4 33-36.4 9.2 0 16 3.2 20.6 8.4v-6.5h20.7zm-20.7 34.5c0-10.3-6.9-16.8-16.4-16.8-9.5 0-16.4 6.5-16.4 16.8s6.9 16.8 16.4 16.8c9.5 0 16.4-6.5 16.4-16.8zm102-62.1v96.6h-20.7v-6.5c-4.6 5.2-11.3 8.4-20.6 8.4-18.1 0-33-15.9-33-36.4 0-20.6 14.9-36.4 33-36.4 9.2 0 16 3.2 20.6 8.4V11.2h20.7zm-20.6 62.1c0-10.3-6.9-16.8-16.4-16.8-9.5 0-16.4 6.5-16.4 16.8s6.9 16.8 16.4 16.8c9.5 0 16.4-6.5 16.4-16.8zm30.3-53c0-6.8 5.7-12.4 12.4-12.4 6.8 0 12.4 5.7 12.4 12.4s-5.7 12.4-12.4 12.4-12.4-5.6-12.4-12.4zm2.1 18.5h20.7v69h-20.7v-69zM116.5 69.9c6.5 0 11.7-5.3 11.7-11.7s-5.3-11.7-11.7-11.7H49.7c-6.5 0-11.7 5.3-11.7 11.7s5.3 11.7 11.7 11.7h66.8z"/><path d="M123.9 0H88c-6.5 0-11.7 5.3-11.7 11.7 0 4.5 2.5 8.3 6.1 10.3 1.7.9 3.6 1.4 5.6 1.4h35.4c19.2 0 34.7 15.5 34.7 34.7 0 19.2-15.5 34.7-34.7 34.7H88c-6.5 0-11.7 5.3-11.7 11.7s5.3 11.7 11.7 11.7h35.9c31.9-.2 57.7-26.2 57.7-58.2 0-31.8-25.8-57.7-57.7-58zM45.5 23.5c6.5 0 11.7-5.3 11.7-11.7S52 0 45.5 0H11.7C5.3 0 0 5.3 0 11.7s5.3 11.7 11.7 11.7l33.8.1z"/></g></g></switch></svg>